<svg xmlns="http://www.w3.org/2000/svg" viewBox="0 0 32 32">
  <defs>
    <linearGradient id="pinkGradient" x1="0%" y1="0%" x2="100%" y2="100%">
      <stop offset="0%" style="stop-color:#ff69b4"/>
      <stop offset="100%" style="stop-color:#ff1493"/>
    </linearGradient>
  </defs>
  
  <!-- Pink circle background -->
  <circle cx="16" cy="16" r="14" fill="url(#pinkGradient)"/>
  
  <!-- White C letter -->
  <path d="M10 8 C7 8, 5 10, 5 16 C5 22, 7 24, 10 24 C12 24, 14 23, 16 21 L14 19 C13 20, 12 21, 10 21 C8 21, 7 20, 7 16 C7 12, 8 11, 10 11 C12 11, 13 12, 14 13 L16 11 C14 9, 12 8, 10 8 Z" fill="white"/>
</svg> 