<svg xmlns="http://www.w3.org/2000/svg" viewBox="0 0 32 32" width="32" height="32">
  <defs>
    <linearGradient id="pinkGradient" x1="0%" y1="0%" x2="100%" y2="100%">
      <stop offset="0%" style="stop-color:#ff69b4;stop-opacity:1" />
      <stop offset="100%" style="stop-color:#ff1493;stop-opacity:1" />
    </linearGradient>
  </defs>
  
  <!-- Background circle -->
  <circle cx="16" cy="16" r="15" fill="url(#pinkGradient)" stroke="#fff" stroke-width="1"/>
  
  <!-- White C letter -->
  <path d="M12 8 C8 8, 6 10, 6 16 C6 22, 8 24, 12 24 C14 24, 16 23, 18 21 L16 19 C15 20, 14 21, 12 21 C10 21, 9 20, 9 16 C9 12, 10 11, 12 11 C14 11, 15 12, 16 13 L18 11 C16 9, 14 8, 12 8 Z" fill="#fff"/>
</svg> 