<svg xmlns="http://www.w3.org/2000/svg" viewBox="0 0 32 32" width="32" height="32">
  <defs>
    <linearGradient id="wheelGradient" x1="0%" y1="0%" x2="100%" y2="100%">
      <stop offset="0%" style="stop-color:#667eea;stop-opacity:1" />
      <stop offset="100%" style="stop-color:#764ba2;stop-opacity:1" />
    </linearGradient>
  </defs>
  
  <!-- Background circle -->
  <circle cx="16" cy="16" r="15" fill="url(#wheelGradient)" stroke="#fff" stroke-width="1"/>
  
  <!-- Wheel segments -->
  <path d="M16 16 L16 1 A15 15 0 0 1 25.5 8.5 Z" fill="#e63946"/>
  <path d="M16 16 L25.5 8.5 A15 15 0 0 1 25.5 23.5 Z" fill="#ffe066"/>
  <path d="M16 16 L25.5 23.5 A15 15 0 0 1 16 31 Z" fill="#38b000"/>
  <path d="M16 16 L16 31 A15 15 0 0 1 6.5 23.5 Z" fill="#457b9d"/>
  <path d="M16 16 L6.5 23.5 A15 15 0 0 1 6.5 8.5 Z" fill="#8e44ad"/>
  <path d="M16 16 L6.5 8.5 A15 15 0 0 1 16 1 Z" fill="#ff8800"/>
  
  <!-- Center dot -->
  <circle cx="16" cy="16" r="3" fill="#fff" stroke="#333" stroke-width="1"/>
  
  <!-- Pointer -->
  <polygon points="16,2 14,6 18,6" fill="#fff" stroke="#333" stroke-width="0.5"/>
</svg> 