<?xml version="1.0" encoding="UTF-8" standalone="no"?>
<svg width="400" height="400" viewBox="0 0 400 400" xmlns="http://www.w3.org/2000/svg">
  <circle cx="200" cy="200" r="180" fill="#f5f5f5" stroke="#ddd" stroke-width="2"/>
  <circle cx="200" cy="200" r="160" fill="#fff" stroke="#eee" stroke-width="1"/>
  
  <!-- Wheel sections -->
  <path d="M200,200 L350,125 A180,180 0 0,0 275,50 Z" fill="#FFC3A0"/>
  <path d="M200,200 L275,50 A180,180 0 0,0 125,50 Z" fill="#FFAFCC"/>
  <path d="M200,200 L125,50 A180,180 0 0,0 50,125 Z" fill="#BDE0FE"/>
  <path d="M200,200 L50,125 A180,180 0 0,0 50,275 Z" fill="#A0C4FF"/>
  <path d="M200,200 L50,275 A180,180 0 0,0 125,350 Z" fill="#CDB4DB"/>
  <path d="M200,200 L125,350 A180,180 0 0,0 275,350 Z" fill="#FFC3A0"/>
  <path d="M200,200 L275,350 A180,180 0 0,0 350,275 Z" fill="#FFAFCC"/>
  <path d="M200,200 L350,275 A180,180 0 0,0 350,125 Z" fill="#BDE0FE"/>
  
  <!-- Text on wheel sections - properly aligned -->
  <text x="300" y="120" font-family="Arial" font-size="12" text-anchor="middle" fill="#333">Prize 1</text>
  <text x="240" y="80" font-family="Arial" font-size="12" text-anchor="middle" fill="#333">Prize 2</text>
  <text x="160" y="80" font-family="Arial" font-size="12" text-anchor="middle" fill="#333">Prize 3</text>
  <text x="100" y="120" font-family="Arial" font-size="12" text-anchor="middle" fill="#333">Prize 4</text>
  <text x="100" y="280" font-family="Arial" font-size="12" text-anchor="middle" fill="#333">Prize 5</text>
  <text x="160" y="320" font-family="Arial" font-size="12" text-anchor="middle" fill="#333">Prize 6</text>
  <text x="240" y="320" font-family="Arial" font-size="12" text-anchor="middle" fill="#333">Prize 7</text>
  <text x="300" y="280" font-family="Arial" font-size="12" text-anchor="middle" fill="#333">Prize 8</text>
  
  <!-- Center circle -->
  <circle cx="200" cy="200" r="40" fill="#fff" stroke="#ddd" stroke-width="2"/>
  <text x="200" y="205" font-family="Arial" font-size="14" text-anchor="middle" fill="#555">EVENT</text>
  
  <!-- Pointer -->
  <polygon points="200,120 210,160 190,160" fill="#555"/>
</svg>